<?xml version="1.0" encoding="UTF-8" standalone="no"?>
<!-- Created with Inkscape (http://www.inkscape.org/) -->

<svg
   width="210mm"
   height="297mm"
   viewBox="0 0 210 297"
   version="1.1"
   id="svg1"
   inkscape:version="1.3.2 (1:1.3.2+202311252150+091e20ef0f)"
   sodipodi:docname="logo.svg"
   xmlns:inkscape="http://www.inkscape.org/namespaces/inkscape"
   xmlns:sodipodi="http://sodipodi.sourceforge.net/DTD/sodipodi-0.dtd"
   xmlns="http://www.w3.org/2000/svg"
   xmlns:svg="http://www.w3.org/2000/svg">
  <sodipodi:namedview
     id="namedview1"
     pagecolor="#ffffff"
     bordercolor="#000000"
     borderopacity="0.25"
     inkscape:showpageshadow="2"
     inkscape:pageopacity="0.0"
     inkscape:pagecheckerboard="0"
     inkscape:deskcolor="#d1d1d1"
     inkscape:document-units="mm"
     inkscape:zoom="0.5140214"
     inkscape:cx="1309.284"
     inkscape:cy="362.82536"
     inkscape:window-width="1796"
     inkscape:window-height="991"
     inkscape:window-x="26"
     inkscape:window-y="23"
     inkscape:window-maximized="0"
     inkscape:current-layer="layer1" />
  <defs
     id="defs1" />
  <g
     inkscape:label="Layer 1"
     inkscape:groupmode="layer"
     id="layer1">
    <rect
       style="opacity:1;fill:#ffffff;stroke:none;stroke-width:1.5;stroke-dasharray:none"
       id="rect35"
       width="202.39182"
       height="209.54611"
       x="230.05357"
       y="25.507797" />
    <ellipse
       style="opacity:0.5;fill:#ececec;stroke:#000000;stroke-width:1;stroke-dasharray:none"
       id="path1"
       cx="168.9648"
       cy="-121.47949"
       rx="74.500023"
       ry="74.500031" />
    <path
       style="opacity:0.5;fill:#ececec;stroke:#000000;stroke-width:0.999994;stroke-dasharray:none"
       d="M 162.45159,367.42922 H 12.451681"
       id="path3" />
    <path
       style="opacity:0.5;fill:#ececec;stroke:#000000;stroke-width:0.999994;stroke-dasharray:none"
       d="M 84.580567,479.14682 -21.685581,373.28144"
       id="path4" />
    <path
       style="opacity:0.5;fill:#ececec;stroke:#000000;stroke-width:0.999994;stroke-dasharray:none"
       d="M 21.825249,430.44945 128.0914,324.58407"
       id="path5" />
    <circle
       style="fill:#ffffff;stroke-width:2.50001"
       id="path50"
       cx="405.33099"
       cy="-99.37484"
       inkscape:export-filename="MF_logo_wbg-circle.png"
       inkscape:export-xdpi="300"
       inkscape:export-ydpi="300"
       r="76.25" />
    <path
       style="opacity:0.43;fill:#0066ff;stroke:none;stroke-width:1.5;stroke-dasharray:none"
       d="m 404.69595,-99.331226 -52.73259,52.940915 c -12.47276,-13.62702 -22.00545,-29.342718 -21.13305,-52.887863 z"
       id="path20"
       sodipodi:nodetypes="cccc"
       inkscape:export-filename="MF_logo.png"
       inkscape:export-xdpi="300"
       inkscape:export-ydpi="300" />
    <path
       style="opacity:0.31;fill:#0066ff;stroke:none;stroke-width:1.5;stroke-dasharray:none"
       d="m 404.594,-99.332315 -52.69498,-52.926905 c -12.47276,13.62703 -22.00545,29.43915 -21.13305,52.984205 z"
       id="path19"
       sodipodi:nodetypes="cccc" />
    <path
       style="opacity:0.88;fill:#0066ff;stroke:none;stroke-width:1.5;stroke-dasharray:none"
       d="m 405.47157,-99.332315 52.6952,-52.926905 c 12.47283,13.62703 22.00558,29.43915 21.13317,52.984205 z"
       id="path18"
       sodipodi:nodetypes="cccc" />
    <path
       style="opacity:0.77;fill:#0066ff;stroke:none;stroke-width:1.5;stroke-dasharray:none"
       d="m 405.47157,-99.285215 52.6952,52.927074 c 12.47283,-13.6271 22.00558,-29.43931 21.13317,-52.984374 z"
       id="path17"
       sodipodi:nodetypes="cccc" />
    <path
       style="opacity:0.54;fill:#0066ff;stroke:none;stroke-width:1.5;stroke-dasharray:none"
       d="m 404.89062,-99.532314 -53.65659,53.868561 c 13.06802,12.960465 31.29915,22.537911 53.70152,22.382052 z"
       id="path16"
       sodipodi:nodetypes="cccc" />
    <path
       style="opacity:0.65;fill:#0066ff;stroke:none;stroke-width:1.5;stroke-dasharray:none"
       d="m 405.5783,-99.225733 53.6022,53.881014 c -13.17372,12.370788 -29.04903,21.755776 -53.51235,22.071856 z"
       id="path15"
       sodipodi:nodetypes="cccc" />
    <path
       style="fill:#0066ff;stroke:none;stroke-width:1.5;stroke-dasharray:none"
       d="m 405.39611,-99.937788 53.73148,-53.496162 c -13.83419,-12.66244 -29.88667,-22.34009 -53.78965,-21.45441 z"
       id="path14"
       sodipodi:nodetypes="cccc" />
    <path
       style="opacity:0.2;fill:#0066ff;stroke:none;stroke-width:1.5;stroke-dasharray:none"
       d="m 404.08535,-103.03674 -51.36936,-51.14462 c 13.22606,-12.10585 29.32075,-21.13592 51.42498,-21.17371 z"
       id="path13"
       sodipodi:nodetypes="cccc" />
    <path
       style="fill:#ececec;stroke:#000000;stroke-width:3.5;stroke-dasharray:none"
       d="M 405.331,-175.47027 V -23.279408"
       id="path2" />
    <path
       style="fill:none;stroke:#000000;stroke-width:3.5;stroke-dasharray:none"
       id="path7"
       sodipodi:type="arc"
       sodipodi:cx="405.33063"
       sodipodi:cy="-99.24395"
       sodipodi:rx="74.499977"
       sodipodi:ry="74.496086"
       sodipodi:start="2.3512615"
       sodipodi:end="3.9233815"
       sodipodi:arc-type="arc"
       d="M 352.9117,-46.308051 A 74.499977,74.496086 0 0 1 330.83133,-98.925767 74.499977,74.496086 0 0 1 352.4614,-151.73017"
       sodipodi:open="true" />
    <path
       style="fill:none;stroke:#000000;stroke-width:3.5;stroke-dasharray:none"
       id="path8"
       sodipodi:type="arc"
       sodipodi:cx="-405.33102"
       sodipodi:cy="-99.24395"
       sodipodi:rx="74.499977"
       sodipodi:ry="74.496086"
       sodipodi:start="2.3512615"
       sodipodi:end="3.9233815"
       sodipodi:arc-type="arc"
       d="m -457.74996,-46.308051 a 74.499977,74.496086 0 0 1 -22.08036,-52.617716 74.499977,74.496086 0 0 1 21.63006,-52.804403"
       sodipodi:open="true"
       transform="scale(-1,1)" />
    <path
       style="fill:#ececec;stroke:#000000;stroke-width:3.5;stroke-dasharray:none"
       d="m 405.21927,-99.134024 54.12252,-53.917116"
       id="path9" />
    <path
       style="fill:#ececec;stroke:#000000;stroke-width:3.5;stroke-dasharray:none"
       d="m 405.11224,-99.46321 -53.81878,-53.61452"
       id="path10" />
    <path
       style="fill:none;stroke:#000000;stroke-width:3.5;stroke-dasharray:none"
       id="path11"
       sodipodi:type="arc"
       sodipodi:cx="-405.04919"
       sodipodi:cy="-99.24395"
       sodipodi:rx="74.918137"
       sodipodi:ry="74.496086"
       sodipodi:start="4.0717167"
       sodipodi:end="4.7184917"
       sodipodi:arc-type="arc"
       d="m -449.83035,-158.96702 a 74.918137,74.496086 0 0 1 45.23836,-14.77163"
       sodipodi:open="true"
       transform="scale(-1,1)" />
    <path
       style="fill:#ececec;stroke:#000000;stroke-width:3.5;stroke-dasharray:none"
       d="M 434.91009,-99.24326 H 404.88073"
       id="path12" />
    <path
       style="opacity:0.43;fill:#00ffff;stroke:none;stroke-width:1.5;stroke-dasharray:none"
       d="m 334.79941,126.31554 -52.6948,52.9272 c -12.47269,-13.62702 -22.00533,-29.43923 -21.13293,-52.9845 z"
       id="path21"
       sodipodi:nodetypes="cccc" />
    <path
       style="opacity:0.31;fill:#00ffff;stroke:none;stroke-width:1.5;stroke-dasharray:none"
       d="m 334.79941,126.26844 -52.6948,-52.927235 c -12.47269,13.6271 -22.00533,29.439315 -21.13293,52.984535 z"
       id="path22"
       sodipodi:nodetypes="cccc" />
    <path
       style="opacity:0.88;fill:#00ffff;stroke:none;stroke-width:1.5;stroke-dasharray:none"
       d="m 335.67698,126.26844 52.6952,-52.927235 c 12.47283,13.6271 22.00558,29.439315 21.13317,52.984535 z"
       id="path23"
       sodipodi:nodetypes="cccc" />
    <path
       style="opacity:0.77;fill:#00ffff;stroke:none;stroke-width:1.5;stroke-dasharray:none"
       d="m 335.67698,126.31554 52.6952,52.9272 c 12.47283,-13.6271 22.00558,-29.43931 21.13317,-52.9845 z"
       id="path24"
       sodipodi:nodetypes="cccc" />
    <path
       style="opacity:0.54;fill:#00ffff;stroke:none;stroke-width:1.5;stroke-dasharray:none"
       d="m 335.09833,126.06844 -52.92651,52.6955 c 13.62689,12.47288 29.43883,22.00562 52.98381,21.13322 z"
       id="path25"
       sodipodi:nodetypes="cccc" />
    <path
       style="opacity:0.65;fill:#00ffff;stroke:none;stroke-width:1.5;stroke-dasharray:none"
       d="m 335.78265,126.37502 52.92692,52.6955 c -13.62704,12.47288 -29.43916,22.00562 -52.98422,21.13322 z"
       id="path26"
       sodipodi:nodetypes="cccc" />
    <path
       style="opacity:1;fill:#00ffff;stroke:none;stroke-width:1.5;stroke-dasharray:none"
       d="m 335.60067,125.66296 52.92692,-52.695455 c -13.62704,-12.4729 -29.43916,-22.0057 -52.98422,-21.13329 z"
       id="path27"
       sodipodi:nodetypes="cccc" />
    <path
       style="opacity:0.2;fill:#00ffff;stroke:none;stroke-width:1.5;stroke-dasharray:none"
       d="m 335.55329,125.66296 -52.9265,-52.695455 c 13.62694,-12.4729 29.43888,-22.0057 52.9838,-21.13329 z"
       id="path28"
       sodipodi:nodetypes="cccc" />
    <path
       style="opacity:1;fill:#ececec;stroke:#000000;stroke-width:1.5;stroke-dasharray:none"
       d="M 335.53641,51.357105 V 201.35749"
       id="path29" />
    <path
       style="opacity:1;fill:none;stroke:#000000;stroke-width:1.5;stroke-dasharray:none"
       id="path30"
       sodipodi:type="arc"
       sodipodi:cx="335.53818"
       sodipodi:cy="126.35468"
       sodipodi:rx="74.499977"
       sodipodi:ry="74.496086"
       sodipodi:start="2.3512615"
       sodipodi:end="3.9233815"
       sodipodi:arc-type="arc"
       d="M 283.11925,179.29058 A 74.499977,74.496086 0 0 1 261.03888,126.67287 74.499977,74.496086 0 0 1 282.66895,73.868465"
       sodipodi:open="true" />
    <path
       style="opacity:1;fill:none;stroke:#000000;stroke-width:1.5;stroke-dasharray:none"
       id="path31"
       sodipodi:type="arc"
       sodipodi:cx="-335.5386"
       sodipodi:cy="126.35468"
       sodipodi:rx="74.499977"
       sodipodi:ry="74.496086"
       sodipodi:start="2.3512615"
       sodipodi:end="3.9233815"
       sodipodi:arc-type="arc"
       d="m -387.95754,179.29058 a 74.499977,74.496086 0 0 1 -22.08036,-52.61771 74.499977,74.496086 0 0 1 21.63006,-52.804405"
       sodipodi:open="true"
       transform="scale(-1,1)" />
    <path
       style="opacity:1;fill:#ececec;stroke:#000000;stroke-width:1.5;stroke-dasharray:none"
       d="M 335.42471,126.46676 388.83632,73.257635"
       id="path32" />
    <path
       style="opacity:1;fill:#ececec;stroke:#000000;stroke-width:1.5;stroke-dasharray:none"
       d="M 335.31762,126.13758 282.24231,73.263315"
       id="path33" />
    <path
       style="opacity:1;fill:none;stroke:#000000;stroke-width:1.5;stroke-dasharray:none"
       id="path34"
       sodipodi:type="arc"
       sodipodi:cx="-335.5386"
       sodipodi:cy="126.35468"
       sodipodi:rx="74.499977"
       sodipodi:ry="74.496086"
       sodipodi:start="3.9744539"
       sodipodi:end="5.4516299"
       sodipodi:arc-type="arc"
       d="m -385.65933,71.238058 a 74.499977,74.496086 0 0 1 100.31338,0.06549"
       sodipodi:open="true"
       transform="scale(-1,1)" />
    <path
       style="opacity:1;fill:#ececec;stroke:#000000;stroke-width:1.5;stroke-dasharray:none"
       d="M 350.37151,126.35749 H 335.08616"
       id="path35" />
    <rect
       style="opacity:1;fill:#ffffff;stroke:none;stroke-width:1.5;stroke-dasharray:none"
       id="rect1"
       width="160"
       height="160"
       x="324.48059"
       y="-399.10547"
       inkscape:export-filename="MF_logo_wbg.png"
       inkscape:export-xdpi="300"
       inkscape:export-ydpi="300" />
    <g
       id="g49">
      <path
         style="opacity:0.43;fill:#00ffff;stroke:none;stroke-width:1.5;stroke-dasharray:none"
         d="m 403.84574,-318.87373 -52.73259,52.94091 c -12.47276,-13.62702 -22.00545,-29.43923 -21.13305,-52.98437 z"
         id="path6"
         sodipodi:nodetypes="cccc"
         inkscape:export-filename="MF_logo.png"
         inkscape:export-xdpi="300"
         inkscape:export-ydpi="300" />
      <path
         style="opacity:0.31;fill:#00ffff;stroke:none;stroke-width:1.5;stroke-dasharray:none"
         d="m 403.74379,-318.87482 -52.69498,-52.92691 c -12.47276,13.62703 -22.00545,29.43915 -21.13305,52.98421 z"
         id="path36"
         sodipodi:nodetypes="cccc" />
      <path
         style="opacity:0.88;fill:#00ffff;stroke:none;stroke-width:1.5;stroke-dasharray:none"
         d="m 404.62136,-318.87482 52.6952,-52.92691 c 12.47283,13.62703 22.00558,29.43915 21.13317,52.98421 z"
         id="path37"
         sodipodi:nodetypes="cccc" />
      <path
         style="opacity:0.77;fill:#00ffff;stroke:none;stroke-width:1.5;stroke-dasharray:none"
         d="m 404.62136,-318.82772 52.6952,52.92707 c 12.47283,-13.6271 22.00558,-29.43931 21.13317,-52.98437 z"
         id="path38"
         sodipodi:nodetypes="cccc" />
      <path
         style="opacity:0.54;fill:#00ffff;stroke:none;stroke-width:1.5;stroke-dasharray:none"
         d="m 404.04234,-319.07482 -53.04249,53.25203 c 13.71476,12.55324 29.73323,21.59039 53.20795,21.64328 z"
         id="path39"
         sodipodi:nodetypes="cccc" />
      <path
         style="opacity:0.65;fill:#00ffff;stroke:none;stroke-width:1.5;stroke-dasharray:none"
         d="m 404.72732,-318.76824 53.19783,52.96509 c -13.69679,12.53672 -29.2177,21.5919 -53.25542,21.62478 z"
         id="path40"
         sodipodi:nodetypes="cccc" />
      <path
         style="opacity:1;fill:#00ffff;stroke:none;stroke-width:1.5;stroke-dasharray:none"
         d="m 404.54505,-319.4803 52.92692,-52.69512 c -13.62704,-12.47284 -29.43916,-22.00558 -52.98422,-21.13317 z"
         id="path41"
         sodipodi:nodetypes="cccc" />
      <path
         style="opacity:0.2;fill:#00ffff;stroke:none;stroke-width:1.5;stroke-dasharray:none"
         d="m 404.49767,-319.4803 -52.92668,-52.69512 c 13.62702,-12.47284 30.20965,-21.77667 52.98398,-21.81562 z"
         id="path42"
         sodipodi:nodetypes="cccc" />
      <path
         style="opacity:1;fill:#ececec;stroke:#000000;stroke-width:1.5;stroke-dasharray:none"
         d="m 404.48079,-393.7857 v 149.60658"
         id="path43" />
      <path
         style="opacity:1;fill:none;stroke:#000000;stroke-width:1.5;stroke-dasharray:none"
         id="path44"
         sodipodi:type="arc"
         sodipodi:cx="404.48041"
         sodipodi:cy="-318.78647"
         sodipodi:rx="74.499977"
         sodipodi:ry="74.496086"
         sodipodi:start="2.3512615"
         sodipodi:end="3.9233815"
         sodipodi:arc-type="arc"
         d="m 352.06148,-265.85057 a 74.499977,74.496086 0 0 1 -22.08037,-52.61772 74.499977,74.496086 0 0 1 21.63007,-52.8044"
         sodipodi:open="true" />
      <path
         style="opacity:1;fill:none;stroke:#000000;stroke-width:1.5;stroke-dasharray:none"
         id="path45"
         sodipodi:type="arc"
         sodipodi:cx="-404.4808"
         sodipodi:cy="-318.78647"
         sodipodi:rx="74.499977"
         sodipodi:ry="74.496086"
         sodipodi:start="2.3512615"
         sodipodi:end="3.9233815"
         sodipodi:arc-type="arc"
         d="m -456.89974,-265.85057 a 74.499977,74.496086 0 0 1 -22.08036,-52.61772 74.499977,74.496086 0 0 1 21.63006,-52.8044"
         sodipodi:open="true"
         transform="scale(-1,1)" />
      <path
         style="opacity:1;fill:#ececec;stroke:#000000;stroke-width:1.5;stroke-dasharray:none"
         d="m 404.36909,-318.6765 53.41161,-53.2088"
         id="path46" />
      <path
         style="opacity:1;fill:#ececec;stroke:#000000;stroke-width:1.5;stroke-dasharray:none"
         d="m 404.262,-319.00568 -53.07549,-52.87394"
         id="path47" />
      <path
         style="opacity:1;fill:none;stroke:#000000;stroke-width:1.5;stroke-dasharray:none"
         id="path48"
         sodipodi:type="arc"
         sodipodi:cx="-404.19897"
         sodipodi:cy="-318.78647"
         sodipodi:rx="74.918137"
         sodipodi:ry="74.496086"
         sodipodi:start="3.9744539"
         sodipodi:end="4.7184917"
         sodipodi:arc-type="arc"
         d="m -454.60102,-373.90309 a 74.918137,74.496086 0 0 1 50.85925,-19.37808"
         sodipodi:open="true"
         transform="scale(-1,1)" />
      <path
         style="opacity:1;fill:#ececec;stroke:#000000;stroke-width:1.5;stroke-dasharray:none"
         d="M 419.31589,-318.78577 H 404.03054"
         id="path49" />
    </g>
  </g>
</svg>
